<svg xmlns="http://www.w3.org/2000/svg" xmlns:xlink="http://www.w3.org/1999/xlink" version="1.1" x="0px" y="0px" viewBox="0 0 100 125" enable-background="new 0 0 100 100" xml:space="preserve"><path fill="#000000" d="M15.697,19.421c0-1.095,0.89-1.981,1.981-1.981h52.507c1.099,0,1.98,0.886,1.98,1.981  c0,1.095-0.882,1.981-1.98,1.981H17.678C16.587,21.402,15.697,20.516,15.697,19.421z M72.165,40.99c0-1.096-0.882-1.982-1.98-1.982  H17.678c-1.091,0-1.981,0.886-1.981,1.982c0,1.095,0.89,1.981,1.981,1.981h52.507C71.283,42.971,72.165,42.085,72.165,40.99z   M92.556,75.178c-0.187,1.472-1.203,2.718-2.798,3.437l-6.354,2.856c-1,0.449-1.448,1.625-1,2.623l3.601,7.988  c1.346,2.987,0.348,6.361-2.222,7.522c-0.589,0.263-1.216,0.395-1.865,0.395l0,0c-2.167,0-4.227-1.455-5.244-3.714l-3.599-7.996  c-0.43-0.96-1.648-1.424-2.62-0.991l-6.361,2.865c-1.874,0.843-3.84,0.557-5.074-0.697c-0.777-0.798-1.177-1.936-1.215-3.212H13.359  c-3.274,0-5.944-2.663-5.944-5.944V7.943c0-3.278,2.67-5.944,5.944-5.944h61.144c3.281,0,5.943,2.666,5.943,5.944v55.061  l10.249,8.157C92.063,72.252,92.737,73.716,92.556,75.178z M61.88,49.384c0.951,0,1.947,0.391,2.879,1.13l11.726,9.34V7.943  c0-1.093-0.886-1.981-1.981-1.981H13.359c-1.091,0-1.981,0.889-1.981,1.981V80.31c0,1.099,0.89,1.981,1.981,1.981h44.472  l0.33-17.755H17.678c-1.091,0-1.981-0.882-1.981-1.982c0-1.09,0.89-1.98,1.981-1.98h40.557l0.132-7.05  C58.42,50.66,60.169,49.384,61.88,49.384z M88.635,74.651c-0.038,0.016-0.119-0.162-0.409-0.387L62.328,53.646l-0.604,32.406  c-0.007,0.418,0.094,0.604,0.123,0.636c0.125,0.03,0.342-0.017,0.62-0.14l6.362-2.864c0.766-0.348,1.587-0.518,2.426-0.518  c2.341,0,4.474,1.369,5.434,3.497l3.6,7.996c0.476,1.053,1.396,1.541,1.861,1.331c0.433-0.193,0.734-1.177,0.239-2.282l-3.599-7.988  c-0.65-1.448-0.697-3.065-0.132-4.552c0.565-1.485,1.672-2.661,3.119-3.312L88.133,75C88.478,74.845,88.612,74.69,88.635,74.651z"/></svg>