<svg xmlns="http://www.w3.org/2000/svg" xmlns:xlink="http://www.w3.org/1999/xlink" version="1.1" x="0px" y="0px" viewBox="0 0 100 125" style="enable-background:new 0 0 100 100;" xml:space="preserve"><g><g><g><path d="M73.31,94.44C73.31,94.44,73.31,94.44,73.31,94.44l-53.48-0.23C11.11,94.21,4,87.1,4,78.36v-1.35     c0-12.13,8.29-13.52,15.6-14.75c3.33-0.56,6.77-1.13,9.42-2.68c0.89-0.51,1.52-0.98,1.99-1.46c0.94-0.99,1.33-2.19,1.12-3.34     c-0.26-1.46-1.46-2.77-3.37-3.7c-0.66-0.33-1.32-0.65-1.97-0.98c-2.99-1.5-5.81-2.92-8.99-3.58c-1.08-0.22-1.78-1.28-1.56-2.36     s1.28-1.77,2.36-1.56c3.7,0.76,6.89,2.37,9.98,3.92c0.64,0.32,1.28,0.64,1.93,0.96c3.08,1.51,5.05,3.84,5.54,6.58     c0.44,2.41-0.33,4.87-2.11,6.76c-0.01,0.01-0.07,0.08-0.08,0.08c-0.96,0.99-2.08,1.69-2.85,2.14c-3.28,1.9-7.09,2.54-10.77,3.16     C12.44,67.52,8,68.67,8,77.01v1.35c0,6.53,5.31,11.84,11.84,11.84l53.48,0.23c1.1,0,2,0.9,1.99,2.01     C75.31,93.55,74.41,94.44,73.31,94.44z"/></g></g><g><path d="M73.31,94.44L73.31,94.44c-0.71,0-1.36-0.37-1.72-0.98c-0.86-1.44-20.96-35.44-20.96-47.27    c0-12.51,10.17-22.68,22.68-22.68C85.82,23.5,96,33.68,96,46.19c0,11.83-20.11,45.83-20.96,47.27    C74.67,94.06,74.02,94.44,73.31,94.44z M73.31,27.5c-10.3,0-18.68,8.38-18.68,18.68c0,8.12,12.21,31.04,18.68,42.28    C79.78,77.22,92,54.31,92,46.19C92,35.88,83.61,27.5,73.31,27.5z"/></g><g><path d="M73.31,56.02c-5.42,0-9.83-4.41-9.83-9.84c0-5.42,4.41-9.83,9.83-9.83c5.42,0,9.83,4.41,9.83,9.83    C83.15,51.61,78.74,56.02,73.31,56.02z M73.31,38.35c-4.32,0-7.83,3.51-7.83,7.83c0,4.32,3.51,7.84,7.83,7.84    c4.32,0,7.83-3.52,7.83-7.84C81.15,41.87,77.63,38.35,73.31,38.35z"/></g><g><path d="M18.21,46.57L18.21,46.57c-0.71,0-1.36-0.37-1.72-0.98C15.29,43.57,4.78,25.67,4.78,19c0-7.41,6.03-13.43,13.43-13.43    S31.65,11.59,31.65,19c0,6.67-10.51,24.57-11.71,26.59C19.57,46.19,18.92,46.57,18.21,46.57z M18.21,9.56    c-5.2,0-9.43,4.23-9.43,9.43c0,3.67,5.24,14.15,9.43,21.58c4.2-7.43,9.43-17.9,9.43-21.58C27.65,13.79,23.42,9.56,18.21,9.56z"/></g><g><g><g><path d="M19.53,18.25c0,0.73-0.59,1.32-1.32,1.32c-0.73,0-1.32-0.59-1.32-1.32c0-0.73,0.59-1.32,1.32-1.32      C18.94,16.93,19.53,17.52,19.53,18.25z"/><path d="M18.21,20.57c-1.28,0-2.32-1.04-2.32-2.32c0-1.28,1.04-2.32,2.32-2.32c1.28,0,2.32,1.04,2.32,2.32      C20.53,19.53,19.49,20.57,18.21,20.57z M18.21,17.93c-0.18,0-0.32,0.14-0.32,0.32c0,0.18,0.14,0.32,0.32,0.32      c0.18,0,0.32-0.14,0.32-0.32C18.53,18.07,18.39,17.93,18.21,17.93z"/></g></g></g></g></svg>