<svg xmlns="http://www.w3.org/2000/svg" xmlns:xlink="http://www.w3.org/1999/xlink" version="1.1" x="0px" y="0px" viewBox="0 0 128 160" style="enable-background:new 0 0 128 128;" xml:space="preserve"><g><path d="M124,78h-6.2212067l-12.1674957-27.8115005l9.8858032-15.278801   c0.6068954-0.9379997,0.6737976-2.4990997,0.1499023-3.485899l-4.0630035-7.6548004   C111.3125,23.2577991,110.9346008,23,110.5482941,23c-0.3592911,0-0.7259979,0.2231007-1.0209961,0.6737995L73.9638977,78H4   C1.7998,78,0,79.7997971,0,82v6c0,2.2002029,1.7998,4,4,4h4v10c0,1.1044998,1.1191397,2,2.5,2h5c1.3808994,0,2.5-0.8955002,2.5-2   V92h92v10c0,1.1044998,1.1190948,2,2.5,2h5c1.3808975,0,2.5-0.8955002,2.5-2V92h4c2.2001953,0,4-1.7997971,4-4v-6   C128,79.7997971,126.2001953,78,124,78z M115.596199,78h-6.3656998l-5.3115997-12.3936005   c-0.2168045-0.5086975-0.8050995-0.7455978-1.3128967-0.5252991c-0.5074081,0.2176971-0.7427063,0.805603-0.5249023,1.3125   L107.0551987,78H87.6162033l16.692894-25.7988014L115.596199,78z M110.4555969,25.9087009l3.4247971,6.4531002   c0.1826096,0.3432999,0.1483994,1.1352997-0.0625,1.4613991L85.2343979,78h-8.8798981L110.4555969,25.9087009z M16,101.8672028   C15.9174995,101.9247971,15.7432003,102,15.5,102h-5c-0.2432003,0-0.4174995-0.0752029-0.5-0.1327972V92h6V101.8672028z    M118,101.8672028C117.9174957,101.9247971,117.7431946,102,117.5,102h-5c-0.2432022,0-0.4175034-0.0752029-0.5-0.1327972V92h6   V101.8672028z M124,90H4c-1.10303,0-2-0.8974991-2-2v-1h7c0.27637,0,0.5-0.2236023,0.5-0.5S9.27637,86,9,86H2v-2h10   c0.2763996,0,0.5-0.2236023,0.5-0.5S12.2763996,83,12,83H2v-1c0-1.1025009,0.89697-2,2-2h120c1.1029968,0,2,0.8974991,2,2v1h-10   c-0.2764053,0-0.5,0.2236023-0.5,0.5s0.2235947,0.5,0.5,0.5h10v2h-7c-0.2764053,0-0.5,0.2236023-0.5,0.5s0.2235947,0.5,0.5,0.5h7v1   C126,89.1025009,125.1029968,90,124,90z"/><path d="M12.4125996,75.0878983C13.5707998,76.3563995,14.8725996,77,16.2817001,77   c0.8286991,0,1.6723995-0.2304993,2.4853992-0.6737976l17.3519993-8.892601   c0.6783028-0.3672028,2.0718002-0.4589996,2.7935028-0.1826019l23.2577972,8.8867035   c1.0839996,0.5302963,2.2030983,0.7987976,3.3251991,0.7987976c3.7471008,0,6.2456055-2.9608994,6.4014053-3.1542969   l15.8744965-22.8208046c1.4697037-2.1128006,1.5781021-4.783699,0.5223999-6.9759979C88.1952972,43.9883003,88.0990982,44,88,44   c-0.7929993,0-1.5586014-0.1133003-2.2914963-0.3070984c1.5062943,1.6840973,1.7450943,4.2230988,0.4213943,6.1264   L70.3086014,72.5702972c-0.0200043,0.0235062-2.0205002,2.3662033-4.8130035,2.3662033   c-0.8153992,0-1.6386986-0.2002029-2.5292969-0.6307983l-23.3393021-8.9219055   c-1.2719994-0.489296-3.2896004-0.344696-4.4404984,0.2812042l-17.3535004,8.8936005   c-1.4419003,0.7841949-2.7251005,0.5156021-3.9438-0.8192978L13.6973,73.5292969   c-0.5151997-0.5634995-0.7582998-1.2577972-0.6841002-1.9540939c0.0742006-0.6992035,0.4614-1.3311005,1.0893002-1.7783051   l20.7621994-14.7909966c0.4492989-0.3204002,1.2364006-0.5357018,1.9589996-0.5357018   c0.2739983,0,25.4277992,7.3139992,25.4277992,7.3139992c0.4067001,0.118103,0.846199-0.0321999,1.0932007-0.3769989   l13.1782036-18.3671989C77.4394989,41.7626991,78.9403992,41,80.5375977,41c0.2847061,0,0.5649033,0.0283012,0.8418045,0.0751991   c-0.5601044-0.6098976-1.0366058-1.294899-1.4131012-2.0410004c-2.0224991,0.1660004-3.8877029,1.1943016-5.0683975,2.8398018   L62.1328011,59.6655006l-24.0205002-7.0249023c-1.3291016-0.3881989-3.3017998-0.0516968-4.4081993,0.7364006L12.9424,68.1679993   c-1.1011,0.7841034-1.7821999,1.9188995-1.9180002,3.1963043c-0.1357002,1.2723999,0.2891006,2.5213928,1.1963005,3.514595   L12.4125996,75.0878983z"/><path d="M88,42c3.8656998,0,7-3.1343002,7-7s-3.1343002-7-7-7s-7,3.1343002-7,7S84.1343002,42,88,42z M88,30   c2.7567978,0,5,2.2431984,5,5s-2.2432022,5-5,5s-5-2.2431984-5-5S85.2432022,30,88,30z"/><circle cx="101" cy="62" r="1"/><circle cx="113.5" cy="83.5" r="0.5"/><circle cx="116.5" cy="86.5" r="0.5"/><circle cx="14.5" cy="83.5" r="0.5"/><circle cx="11.5" cy="86.5" r="0.5"/><path d="M75.5927963,59.7094994c-0.1601944,0.2251015-0.1078949,0.5371017,0.1167068,0.6977005   C75.7978973,60.4696999,75.8989029,60.5,75.9994965,60.5c0.1563034,0,0.3101044-0.0727997,0.4077072-0.2094994   l7.2724991-10.1958008c0.6810989-0.9966011,0.9403992-1.9482002,0.7709961-2.8296013   c-0.2118988-1.0985985-1.028801-1.6571999-1.0634995-1.6800995c-0.2285004-0.1543007-0.5346985-0.0923004-0.689003,0.134201   c-0.1546936,0.2261009-0.0965958,0.5367012,0.1285019,0.6934013c0.1499023,0.1044998,1.4213028,1.078598,0.0332031,3.1093979   L75.5927963,59.7094994z"/><circle cx="74.5" cy="62.5" r="0.5"/></g></svg>