<svg xmlns="http://www.w3.org/2000/svg" xmlns:xlink="http://www.w3.org/1999/xlink" version="1.1" x="0px" y="0px" viewBox="0 0 128 160" style="enable-background:new 0 0 128 128;" xml:space="preserve"><g><g><g><g>
<g><g><path d="M73.36,22.232H4.118c-1.104,0-2-0.896-2-2s0.896-2,2-2H73.36c1.104,0,2,0.896,2,2S74.465,22.232,73.36,22.232z"/></g><g><path d="M47.284,14.271H30.193c-1.104,0-2-0.896-2-2s0.896-2,2-2h17.091c1.104,0,2,0.896,2,2S48.389,14.271,47.284,14.271z"/>
</g><g><path d="M64.261,90.641H4.118c-1.104,0-2-0.896-2-2s0.896-2,2-2h60.143c1.104,0,2,0.896,2,2S65.365,90.641,64.261,90.641z"/></g>
<g><ellipse cx="38.785" cy="97.52" rx="2.958" ry="2.964"/></g></g><g><path d="M85.593,108.876c-13.058,0-23.681-10.594-23.681-23.615c0-13.022,10.623-23.616,23.681-23.616
  s23.681,10.594,23.681,23.616C109.273,98.282,98.65,108.876,85.593,108.876z M85.593,65.645       c-10.852,0-19.681,8.8-19.681,19.616s8.829,19.615,19.681,19.615s19.681-8.799,19.681-19.615S96.444,65.645,85.593,65.645z"/></g><g><path d="M85.593,100.105c-8.087,0-14.666-6.659-14.666-14.845s6.579-14.845,14.666-14.845c8.086,0,14.665,6.66,14.665,14.845       S93.679,100.105,85.593,100.105z M85.593,74.416c-5.881,0-10.666,4.865-10.666,10.845s4.785,10.845,10.666,10.845       s10.665-4.865,10.665-10.845S91.474,74.416,85.593,74.416z"/></g><g><g><path d="M20,47.125c-0.614,0-1.221-0.282-1.612-0.814c-0.655-0.889-0.465-2.141,0.425-2.796l19.451-14.32        c0.706-0.52,1.668-0.52,2.374,0.002l19.288,14.254c0.889,0.657,1.076,1.909,0.42,2.797c-0.657,0.888-1.908,1.076-2.797,0.419        L39.447,33.29L21.184,46.735C20.827,46.999,20.411,47.125,20,47.125z"/></g><g><path d="M54.346,72.259H24.39c-1.104,0-2-0.896-2-2V50.652c0-0.627,0.294-1.217,0.794-1.595l15.039-11.373        c0.711-0.54,1.695-0.541,2.408-0.003l14.917,11.225c0.503,0.378,0.798,0.97,0.798,1.598v19.754        C56.346,71.364,55.45,72.259,54.346,72.259z M26.39,68.259h25.956V51.503l-12.914-9.718L26.39,51.647V68.259z"/>
  </g></g></g><g><path d="M117.721,126c-2.212,0-4.291-0.863-5.855-2.43l-17.684-17.722c-0.449-0.451-0.658-1.089-0.561-1.719
     c0.098-0.629,0.489-1.175,1.054-1.468c3.467-1.802,6.294-4.557,8.175-7.966c0.304-0.551,0.849-0.927,1.472-1.015
          c0.619-0.088,1.251,0.122,1.695,0.568l17.561,17.598c3.226,3.232,3.226,8.491,0,11.724C122.013,125.137,119.934,126,117.721,126
          z M98.828,104.841l15.869,15.904c0.808,0.81,1.882,1.255,3.023,1.255c1.143,0,2.217-0.446,3.024-1.255
           c1.671-1.675,1.671-4.399,0-6.073l0,0l-15.786-15.82C103.298,101.207,101.225,103.231,98.828,104.841z"/>
</g></g><g><path d="M68.458,107.833H9.021c-3.871,0-7.021-2.85-7.021-6.353V8.353C2,4.85,5.149,2,9.021,2h59.438
  c3.871,0,7.021,2.85,7.021,6.353v58.979c0,0.666-0.331,1.288-0.884,1.659c-5.437,3.659-8.683,9.741-8.683,16.269
   c0,6.382,3.138,12.388,8.393,16.064c0.772,0.54,1.063,1.546,0.697,2.415C73.971,106.188,71.341,107.833,68.458,107.833z M9.021,6
     C7.383,6,6,7.077,6,8.353v93.128c0,1.275,1.383,2.353,3.021,2.353h59.438c0.697,0,1.352-0.192,1.872-0.523
      c-5.306-4.468-8.418-11.071-8.418-18.05c0-7.501,3.557-14.512,9.566-18.963V8.353C71.479,7.077,70.096,6,68.458,6H9.021z"/></g>
</g></g></svg>