<svg xmlns="http://www.w3.org/2000/svg" data-name="Layer 1" viewBox="0 0 64 80" x="0px" y="0px"><title>Artboard 6</title><path d="M32,55.55,47.84,39.71c.3-.28.94-1,1-1h0a23,23,0,1,0-33.64,0ZM32,2.26A20.78,20.78,0,0,1,47.21,37.2c-.19.2-.69.72-.9.91L32,52.42,16.78,37.2A20.79,20.79,0,0,1,32,2.26Z"/><path d="M35.54,7.79c4,0,11.69,4.34,11.69,12.29a1.11,1.11,0,1,0,2.21,0A14.09,14.09,0,0,0,44.29,9.27a14.76,14.76,0,0,0-8.75-3.69,1.11,1.11,0,0,0,0,2.21Z"/><path d="M45.88,48.54a28.07,28.07,0,0,0-2.77-.94L41.3,49.41c5.34,1.28,8.63,3.55,8.63,5.66,0,3.15-7.37,6.67-17.93,6.67s-17.93-3.52-17.93-6.67c0-2.11,3.29-4.38,8.63-5.66L20.89,47.6a28.07,28.07,0,0,0-2.77.94c-4,1.65-6.26,4-6.26,6.53s2.23,4.87,6.26,6.52A38,38,0,0,0,32,64a38,38,0,0,0,13.88-2.36c4-1.65,6.26-4,6.26-6.52S49.91,50.19,45.88,48.54Z"/><path d="M32.06,33.62A11.14,11.14,0,1,1,43.2,22.48,11.15,11.15,0,0,1,32.06,33.62Zm0-20.06A8.93,8.93,0,1,0,41,22.48,8.93,8.93,0,0,0,32.06,13.56Z"/><text x="0" y="20" fill="#000000" font-size="3px" font-weight="bold" font-family="'Helvetica Neue', Helvetica, Arial-Unicode, Arial, Sans-serif">Tonaz</text></svg>